<svg version="1.1" viewBox="0 0 128 129" xmlns="http://www.w3.org/2000/svg" class="arsenal-button__icon">
    <g fill="none" fill-rule="evenodd">
        <g transform="translate(-543 -39)">
            <g transform="translate(543 39.541)">
                <polygon points="67.301 18.947 67.301 62.878 105.49 83.88 102.11 90.013 63.801 68.941 25.488 90.013 22.115 83.88 60.301 62.877 60.301 18.947" fill="#AAB2C1" fill-rule="nonzero"/>
                <path d="m126 102c1.1046 0 2 0.89543 2 2v22c0 1.1046-0.89543 2-2 2h-22c-1.1046 0-2-0.89543-2-2v-3c0-1.1046 0.89543-2 2-2h17v-17c0-1.1046 0.89543-2 2-2h3zm-121 0c1.1046 0 2 0.89543 2 2v17h17c1.1046 0 2 0.89543 2 2v3c0 1.1046-0.89543 2-2 2h-22c-1.1046 0-2-0.89543-2-2l1.6227e-15 -22c-1.3527e-16 -1.1046 0.89543-2 2-2h3zm59.801-87.732l41.301 23.845c0.6188 0.35727 1 1.0175 1 1.7321v47.691c0 0.71453-0.3812 1.3748-1 1.7321l-41.301 23.845c-0.6188 0.35726-1.3812 0.35726-2 0l-41.301-23.845c-0.6188-0.35727-1-1.0175-1-1.7321v-47.691c0-0.71453 0.3812-1.3748 1-1.7321l41.301-23.845c0.6188-0.35727 1.3812-0.35727 2 0zm-37.302 32.879l2.702e-4 37.502 32.802 18.937 2.702e-4 -38.398-32.802-18.041zm72.603 0l-32.801 18.042-2.702e-4 38.397 32.801-18.937-2.7e-4 -37.502zm-36.301-25.374l-33.133 19.128 33.133 18.224 33.132-18.224-33.132-19.128zm-39.801-21.773c1.1046-2.0291e-16 2 0.89543 2 2v3c0 1.1046-0.89543 2-2 2h-17v17c0 1.1046-0.89543 2-2 2h-3c-1.1046 0-2-0.89543-2-2l4.4409e-15 -22c0-1.1046 0.89543-2 2-2l22 2.7554e-16zm102-2.218e-13c1.1046 2.0291e-16 2 0.89543 2 2v22c0 1.1046-0.89543 2-2 2h-3c-1.1046 0-2-0.89543-2-2v-17h-17c-1.1046 0-2-0.89543-2-2v-3c0-1.1046 0.89543-2 2-2l22 8.4822e-15z" fill="#636770"/>
            </g>
        </g>
    </g>
</svg>
